<svg xmlns="http://www.w3.org/2000/svg" viewBox="0 0 1000 300" width="1000" height="300" role="img" aria-label="Hi, I am Mowlya, Data and Machine Learning Engineer">
<defs>
<linearGradient id="bg" x1="0" y1="0" x2="1" y2="1"><stop offset="0%" stop-color="#0d1117"/><stop offset="55%" stop-color="#11161d"/><stop offset="100%" stop-color="#0d1117"/></linearGradient>
<linearGradient id="shine" x1="0" y1="0" x2="1" y2="0"><stop offset="0%" stop-color="#22d3ee"/><stop offset="50%" stop-color="#a78bfa"/><stop offset="100%" stop-color="#22d3ee"/><animateTransform attributeName="gradientTransform" type="translate" values="-1 0;1 0;-1 0" dur="9s" repeatCount="indefinite"/></linearGradient>
<radialGradient id="g1"><stop offset="0%" stop-color="#a78bfa" stop-opacity="0.20"/><stop offset="100%" stop-color="#a78bfa" stop-opacity="0"/></radialGradient>
<radialGradient id="g2"><stop offset="0%" stop-color="#22d3ee" stop-opacity="0.17"/><stop offset="100%" stop-color="#22d3ee" stop-opacity="0"/></radialGradient>
<pattern id="dots" width="24" height="24" patternUnits="userSpaceOnUse"><circle cx="1.2" cy="1.2" r="1.2" fill="#1b2430"/></pattern>
<clipPath id="c0"><rect x="70" y="82" height="66.0" width="0"><animate attributeName="width" values="0;0;431;431;0;0" keyTimes="0;0.0312;0.1500;0.945;0.97;1" dur="16.0s" repeatCount="indefinite"/></rect></clipPath>
<clipPath id="c1"><rect x="70" y="155" height="25.5" width="0"><animate attributeName="width" values="0;0;570;570;0;0" keyTimes="0;0.1812;0.3063;0.945;0.97;1" dur="16.0s" repeatCount="indefinite"/></rect></clipPath>
</defs>
<rect width="1000" height="300" rx="16" fill="url(#bg)"/>
<rect width="1000" height="300" rx="16" fill="url(#dots)" opacity="0.75"/>
<circle cx="880" cy="60" r="210" fill="url(#g1)"><animate attributeName="r" values="185;225;185" dur="11s" repeatCount="indefinite"/></circle>
<circle cx="90" cy="290" r="190" fill="url(#g2)"><animate attributeName="r" values="205;170;205" dur="11s" repeatCount="indefinite"/></circle>
<rect x="0.5" y="0.5" width="999" height="299" rx="16" fill="none" stroke="#21262d"/>
<circle cx="70" cy="48" r="5" fill="#22d3ee" opacity="0.6"/>
<circle cx="88" cy="48" r="5" fill="#a78bfa" opacity="0.6"/>
<circle cx="106" cy="48" r="5" fill="#586069" opacity="0.6"/>
<text x="138" y="53" font-family="ui-monospace,SFMono-Regular,Menlo,Consolas,monospace" font-size="12" letter-spacing="1.8" fill="#586069">mowlya-m . profile</text>
<ellipse cx="858" cy="152" rx="64" ry="23" fill="none" stroke="#22d3ee" stroke-opacity="0.30" transform="rotate(0 858 152)"/>
<g transform="rotate(0 858 152)"><circle r="4.5" fill="#a78bfa"><animateMotion dur="14s" repeatCount="indefinite" path="M 794,152 a 64,23 0 1,0 128,0 a 64,23 0 1,0 -128,0"/></circle></g>
<ellipse cx="858" cy="152" rx="64" ry="23" fill="none" stroke="#a78bfa" stroke-opacity="0.30" transform="rotate(60 858 152)"/>
<g transform="rotate(60 858 152)"><circle r="4.5" fill="#22d3ee"><animateMotion dur="18s" repeatCount="indefinite" path="M 794,152 a 64,23 0 1,0 128,0 a 64,23 0 1,0 -128,0"/></circle></g>
<ellipse cx="858" cy="152" rx="64" ry="23" fill="none" stroke="#22d3ee" stroke-opacity="0.30" transform="rotate(120 858 152)"/>
<g transform="rotate(120 858 152)"><circle r="4.5" fill="#a78bfa"><animateMotion dur="22s" repeatCount="indefinite" path="M 794,152 a 64,23 0 1,0 128,0 a 64,23 0 1,0 -128,0"/></circle></g>
<circle cx="858" cy="152" r="13" fill="#22d3ee" opacity="0.9"><animate attributeName="r" values="11;15;11" dur="3.2s" repeatCount="indefinite"/></circle>
<g transform="translate(556,104) scale(0.95)"><animateTransform attributeName="transform" type="rotate" additive="sum" values="0;-17;14;-17;14;0;0" keyTimes="0;0.045;0.09;0.135;0.18;0.225;1" dur="4.5s" repeatCount="indefinite"/><rect x="-14.5" y="-24" width="8.6" height="34" rx="4.3" fill="#f6c193"/><rect x="-5" y="-27" width="8.6" height="37" rx="4.3" fill="#f6c193"/><rect x="4.5" y="-26" width="8.6" height="36" rx="4.3" fill="#f6c193"/><rect x="14" y="-21" width="8.6" height="31" rx="4.3" fill="#f6c193"/><g transform="rotate(-42 -17 12)"><rect x="-25" y="2" width="8.6" height="20" rx="4.3" fill="#e8ab77"/></g><rect x="-19" y="4" width="38" height="30" rx="12" fill="#f6c193"/></g>
<g clip-path="url(#c0)"><text x="70" y="126" font-family="ui-monospace,SFMono-Regular,Menlo,Consolas,monospace" font-size="44" font-weight="700" fill="url(#shine)">Hiii, I'm Mowlya</text></g>
<g clip-path="url(#c1)"><text x="70" y="172" font-family="Segoe UI,Helvetica Neue,Helvetica,Arial,sans-serif" font-size="17" fill="#c9d1d9">I turn messy data into pipelines, models and decisions.</text></g>
<g opacity="0"><rect x="70" y="192" width="136" height="27" rx="13.5" fill="#161b22" stroke="#262d38"/><circle cx="84" cy="205.5" r="3.4" fill="#22d3ee"/><text x="94" y="210" font-family="Segoe UI,Helvetica Neue,Helvetica,Arial,sans-serif" font-size="12.5" fill="#7d8590">Data Engineering</text><animate attributeName="opacity" values="0;0;1;1;0;0" keyTimes="0;0.3375;0.3625;0.945;0.97;1" dur="16.0s" repeatCount="indefinite"/></g>
<g opacity="0"><rect x="216.4" y="192" width="136" height="27" rx="13.5" fill="#161b22" stroke="#262d38"/><circle cx="230.4" cy="205.5" r="3.4" fill="#a78bfa"/><text x="240.4" y="210" font-family="Segoe UI,Helvetica Neue,Helvetica,Arial,sans-serif" font-size="12.5" fill="#7d8590">Machine Learning</text><animate attributeName="opacity" values="0;0;1;1;0;0" keyTimes="0;0.3550;0.3800;0.945;0.97;1" dur="16.0s" repeatCount="indefinite"/></g>
<g opacity="0"><rect x="362.8" y="192" width="47" height="27" rx="13.5" fill="#161b22" stroke="#262d38"/><circle cx="376.8" cy="205.5" r="3.4" fill="#22d3ee"/><text x="386.8" y="210" font-family="Segoe UI,Helvetica Neue,Helvetica,Arial,sans-serif" font-size="12.5" fill="#7d8590">AWS</text><animate attributeName="opacity" values="0;0;1;1;0;0" keyTimes="0;0.3725;0.3975;0.945;0.97;1" dur="16.0s" repeatCount="indefinite"/></g>
<g opacity="0"><rect x="419.5" y="192" width="116" height="27" rx="13.5" fill="#161b22" stroke="#262d38"/><circle cx="433.5" cy="205.5" r="3.4" fill="#a78bfa"/><text x="443.5" y="210" font-family="Segoe UI,Helvetica Neue,Helvetica,Arial,sans-serif" font-size="12.5" fill="#7d8590">Melbourne, AU</text><animate attributeName="opacity" values="0;0;1;1;0;0" keyTimes="0;0.3900;0.4150;0.945;0.97;1" dur="16.0s" repeatCount="indefinite"/></g>
<g opacity="0"><rect x="70" y="233" width="3" height="48" rx="1.5" fill="#a78bfa"/><text x="88" y="250" font-family="Segoe UI,Helvetica Neue,Helvetica,Arial,sans-serif" font-size="15" font-style="italic" fill="#7d8590">"I have no special talent. I am only passionately curious."</text><text x="88" y="273" font-family="ui-monospace,SFMono-Regular,Menlo,Consolas,monospace" font-size="11.5" letter-spacing="1.6" fill="#586069">- Albert Einstein</text><animate attributeName="opacity" values="0;0;1;1;0;0" keyTimes="0;0.4375;0.4875;0.945;0.97;1" dur="16.0s" repeatCount="indefinite"/></g>
</svg>